<svg id="Layer_1" data-name="Layer 1" xmlns="http://www.w3.org/2000/svg" viewBox="0 0 200 200"><defs><style>.cls-1{fill:#d1d1d1;}</style></defs><title>Wondicon - UI (Free)</title><path class="cls-1" d="M118.75,157a4.87,4.87,0,0,1-.66,0,5,5,0,0,1-3.67-2.46l-11.73-20.32L91,132.41A27.58,27.58,0,0,1,67.59,109l-1.73-11.7L45.54,85.58a5,5,0,0,1-2.46-3.67,5,5,0,0,1,1.42-4.19L62.18,60a5,5,0,0,1,3.53-1.46H99l24.76-24.77a32.31,32.31,0,0,1,26-9.35l19.46,1.83a5,5,0,0,1,4.51,4.51l1.83,19.46a32.3,32.3,0,0,1-9.35,26L141.42,101v33.29a5,5,0,0,1-1.46,3.53L122.28,155.5A5,5,0,0,1,118.75,157ZM56.18,80.18,73,89.86a5,5,0,0,1,2.45,3.6l2.08,14.09a17.65,17.65,0,0,0,15,15l14.09,2.08a5,5,0,0,1,3.6,2.45l9.68,16.77,11.6-11.61V98.93a5,5,0,0,1,1.47-3.53l26.23-26.23a22.39,22.39,0,0,0,6.47-18l-1.45-15.34L148.8,34.41a22.41,22.41,0,0,0-18,6.47L104.6,67.11a5,5,0,0,1-3.53,1.47H67.79Z"/><path class="cls-1" d="M29.31,175.69a5,5,0,0,1-3.53-8.54l35.33-35.33a5,5,0,1,1,7.07,7.07L32.85,174.22A5,5,0,0,1,29.31,175.69Z"/><path class="cls-1" d="M28.91,135.13a5,5,0,0,1-3.54-8.53l21.09-21.1a5,5,0,1,1,7.08,7.07l-21.1,21.1A5,5,0,0,1,28.91,135.13Z"/><path class="cls-1" d="M69.46,175.69a5,5,0,0,1-3.53-8.54L87,146.06a5,5,0,1,1,7.07,7.07L73,174.22A5,5,0,0,1,69.46,175.69Z"/><path class="cls-1" d="M141,73a14,14,0,1,1,14-14A14,14,0,0,1,141,73Zm0-18a4,4,0,1,0,4,4A4,4,0,0,0,141,55Z"/></svg>