<?xml version="1.0" ?><!DOCTYPE svg  PUBLIC '-//W3C//DTD SVG 1.1//EN'  'http://www.w3.org/Graphics/SVG/1.1/DTD/svg11.dtd'><svg enable-background="new 0 0 128 128" id="Слой_1" version="1.1" viewBox="0 0 128 128" xml:space="preserve" xmlns="http://www.w3.org/2000/svg" xmlns:xlink="http://www.w3.org/1999/xlink"><g><rect fill="rgb(209, 209, 209)" height="4" width="40" x="36.5" y="18"/><rect fill="rgb(209, 209, 209)" height="4" width="60" x="26.5" y="38"/><rect fill="rgb(209, 209, 209)" height="4" width="60" x="26.5" y="48"/><rect fill="rgb(209, 209, 209)" height="4" width="60" x="26.5" y="58"/><rect fill="rgb(209, 209, 209)" height="4" width="60" x="26.5" y="68"/><rect fill="rgb(209, 209, 209)" height="4" width="60" x="26.5" y="78"/><rect fill="rgb(209, 209, 209)" height="4" width="10" x="76.5" y="88"/><path d="M21.5,123.5h85c9.4,0,17-7.6,17-17v-2h-15v-105H4.5v107C4.5,115.9,12.1,123.5,21.5,123.5l0-4   c-7.2,0-13-5.8-13-13V3.5h96v101h-70v2c0,7.2-5.8,13-13,13V123.5z M38.4,108.5h81c-1,6.2-6.4,11-12.8,11H32.4   C35.7,116.8,37.9,112.9,38.4,108.5z" fill="rgb(209, 209, 209)"/></g></svg>