<?xml version="1.0" encoding="utf-8"?>
<!-- Generator: Adobe Illustrator 17.1.0, SVG Export Plug-In . SVG Version: 6.00 Build 0)  -->
<!DOCTYPE svg PUBLIC "-//W3C//DTD SVG 1.1//EN" "http://www.w3.org/Graphics/SVG/1.1/DTD/svg11.dtd">
<svg version="1.1" id="users-team" xmlns="http://www.w3.org/2000/svg" xmlns:xlink="http://www.w3.org/1999/xlink" x="0px" y="0px"
	 viewBox="0 0 1010 739.746" enable-background="new 0 0 1010 739.746" xml:space="preserve">
<g id="users-team-users-team">
	<path fill="rgb(209, 209, 209)" d="M580.8887,565.1406c-15.1524-2.4024-15.4961-43.6339-15.4961-43.6339s44.501-43.669,54.1816-102.3652
		c26.0781,0,42.1885-62.417,16.0918-84.3775C636.7852,311.6469,669.1855,153.331,505,153.331
		c-164.1675,0-131.7314,158.3159-130.6479,181.4331c-26.0787,21.9605-9.9693,84.3775,16.1098,84.3775
		c9.6802,58.6962,54.1807,102.3652,54.1807,102.3652s-0.3613,41.2314-15.4956,43.6339
		c-48.7627,7.7109-230.8096,87.3027-230.8096,174.6053H505h306.6992C811.6992,652.4433,629.6514,572.8515,580.8887,565.1406z"/>
	<g>
		<path fill="rgb(209, 209, 209)" d="M274.7681,579.0644c35.2353-21.6719,77.9843-41.7549,113.0571-53.873
			c-12.5879-17.8614-26.6025-42.2618-35.398-71.1036c-12.2812-10.041-22.3227-24.4179-28.77-42.0078
			c-6.4116-17.6816-8.8676-37.4209-6.8447-55.6435c1.4268-13.1118,5.165-25.3208,10.8721-36.0122
			c-3.4492-37.2403-5.9239-110.2578,41.8999-163.5171c18.5659-20.6612,41.9717-35.5069,70.0556-44.4463
			C434.6011,60.6821,408.3599,0,306.6987,0c-164.2036,0-131.7675,158.3159-130.666,181.4326
			c-26.0786,21.9253-9.9692,84.3774,16.1099,84.3774c9.6982,58.6597,54.1626,102.3286,54.1626,102.3286
			s-0.3613,41.25-15.4776,43.6699C182.0469,419.4843,0,499.0761,0,586.415h263.2456
			C267.0205,583.9414,270.8311,581.5214,274.7681,579.0644z"/>
		<path fill="rgb(209, 209, 209)" d="M746.7715,586.415H1010c0-87.3389-182.0469-166.9307-230.8457-174.6065
			c-15.0801-2.4199-15.4414-43.6699-15.4414-43.6699s44.4824-43.6689,54.1797-102.3286c26.0801,0,42.1894-62.4521,16.1103-84.3774
			C835.0859,158.3159,867.5234,0,703.3193,0C601.6582,0,575.3984,60.6821,570.3594,112.4609
			c28.1201,8.9394,51.5263,23.7851,70.0566,44.4463c47.8223,53.2593,45.3486,126.2768,41.917,163.5171
			c5.7256,10.6914,9.4463,22.9004,10.8721,36.0122c2.041,18.2226-0.4336,37.9619-6.8438,55.6435
			c-6.4668,17.5899-16.4717,31.9668-28.7704,42.0078c-8.8135,28.8418-22.8467,53.2422-35.416,71.1036
			c35.0732,12.1181,77.8574,32.2011,113.0566,53.873C739.1689,581.5214,743.0156,583.9414,746.7715,586.415z"/>
	</g>
</g>
</svg>
